<svg width="30" height="30" viewBox="0 0 30 30" version="1.1" xmlns="http://www.w3.org/2000/svg" xmlns:xlink="http://www.w3.org/1999/xlink">
<g id="Canvas" fill="none">
<g id="facebook">
<g id="Subtract">
<path fill-rule="evenodd" clip-rule="evenodd" d="M 29.5758 14.5758C 29.6935 22.7425 23.1681 29.4582 15.0016 29.5758C 6.83506 29.6934 0.119243 23.1683 0.00156688 15.0016C -0.116109 6.83488 6.40928 0.119117 14.5758 0.00156373C 22.7423 -0.11599 29.4581 6.4091 29.5758 14.5758ZM 16.1085 9.9293L 16.1085 11.329L 18.8287 11.329L 18.6437 13.468L 18.5118 14.8412L 15.9239 14.8412L 15.9239 23.6087L 12.4117 23.6087L 12.4117 14.8412L 10.6686 14.8412L 10.6686 13.4416L 10.6686 11.329L 12.4117 11.329L 12.4117 9.74442C 12.4117 8.3184 13.0982 6.07371 16.1085 6.07371L 18.8287 6.07371L 18.8287 9.08427L 16.8746 9.08427C 16.5577 9.08427 16.1085 9.24271 16.1085 9.9293Z" transform="translate(0.199585 0.210938)" fill="white"/>
</g>
</g>
</g>
</svg>

