<svg width="30" height="30" viewBox="0 0 30 30" version="1.1" xmlns="http://www.w3.org/2000/svg" xmlns:xlink="http://www.w3.org/1999/xlink">
<g id="Canvas" fill="none">
<g id="instagram">
<g id="Subtract">
<path fill-rule="evenodd" clip-rule="evenodd" d="M 15 30C 23.2769 30 30 23.2769 30 15C 30 6.72314 23.3035 0 15 0C 6.72314 0 0 6.72314 0 15C 0 23.2769 6.72314 30 15 30ZM 9.5625 6.13354L 20.4644 6.13354C 22.3394 6.13354 23.8931 7.6604 23.8931 9.56201L 23.8931 13.1782L 23.8931 14.5176L 23.8931 20.4639C 23.8931 22.3389 22.3662 23.8926 20.4644 23.8926L 9.5625 23.8926C 7.66089 23.8926 6.13403 22.3657 6.13403 20.4639L 6.13403 14.5176L 6.13403 13.1782L 6.13403 9.56201C 6.13403 7.68701 7.66089 6.13354 9.5625 6.13354ZM 21.8572 8.16919L 21.4556 8.16919L 18.8572 8.19604L 18.8572 11.196L 21.8572 11.196L 21.8572 8.57104L 21.8572 8.16919ZM 15.0269 11.8657C 13.9822 11.8657 13.0447 12.4014 12.4822 13.1782C 12.4321 13.2451 12.3923 13.312 12.3567 13.3723C 12.335 13.4087 12.3149 13.4426 12.2947 13.4729C 12.0537 13.9282 11.8931 14.437 11.8931 14.9995C 11.8931 16.7407 13.3125 18.1335 15.0269 18.1335C 16.7681 18.1335 18.1609 16.7139 18.1609 14.9995C 18.1609 14.437 18.0269 13.9282 17.759 13.4729C 17.7056 13.3657 17.6519 13.2854 17.5715 13.1782C 16.9822 12.3745 16.0715 11.8657 15.0269 11.8657ZM 20.4375 22.1782C 21.375 22.1782 22.1519 21.4014 22.1519 20.4639L 22.1519 14.1157L 22.1519 13.2051L 19.5 13.2051C 19.5269 13.2854 19.5537 13.3726 19.5806 13.4595C 19.6072 13.5464 19.634 13.6335 19.6609 13.7139C 19.7947 14.1157 19.8484 14.571 19.8484 15.0264C 19.8484 17.7051 17.6787 19.8745 15 19.8745C 12.3215 19.8745 10.1519 17.7051 10.1519 15.0264C 10.1519 14.571 10.2322 14.1426 10.3394 13.7139C 10.3582 13.582 10.4036 13.4634 10.4475 13.3486C 10.4658 13.3003 10.4841 13.2527 10.5 13.2051L 7.84839 13.2051L 7.84839 14.1157L 7.84839 20.4639C 7.84839 21.4014 8.625 22.1782 9.5625 22.1782L 20.4375 22.1782Z" transform="translate(30 0) scale(-1 1)" fill="white"/>
</g>
</g>
</g>
</svg>

