<svg width="30" height="30" viewBox="0 0 30 30" version="1.1" xmlns="http://www.w3.org/2000/svg" xmlns:xlink="http://www.w3.org/1999/xlink">
<g id="Canvas" fill="none">
<g id="twitter">
<g id="Subtract">
<path fill-rule="evenodd" clip-rule="evenodd" d="M 15 30C 23.2769 30 30 23.2769 30 15C 30 6.72314 23.2769 0 15 0C 6.72314 0 0 6.72314 0 15C 0 23.2769 6.72314 30 15 30ZM 21.7766 11.009C 22.4998 10.9287 23.2229 10.7412 23.8657 10.4465C 23.3835 11.1431 22.7676 11.7859 22.0444 12.3752L 22.0444 12.8306C 22.0444 13.5537 21.9641 14.2769 21.8032 15.0002C 20.8926 19.0984 17.3835 23.0359 11.6782 23.0359C 9.61572 23.0359 7.68726 22.4465 6.08008 21.4287C 6.37476 21.4556 6.66943 21.4824 6.96411 21.4824C 8.67822 21.4824 10.2319 20.9199 11.4907 19.9556C 9.9104 19.9287 8.54443 18.884 8.08911 17.4644L 8.15454 17.4717C 8.36938 17.4958 8.56641 17.5181 8.7854 17.5181C 9.13354 17.5181 9.45508 17.4644 9.74976 17.384C 8.51758 17.1431 7.52661 16.2859 7.07104 15.1609C 6.9104 14.759 6.83008 14.3037 6.83008 13.8484L 6.83008 13.7949C 7.33911 14.0627 7.90161 14.2234 8.49072 14.2502C 7.49976 13.5806 6.85693 12.4824 6.85693 11.2502C 6.85693 10.6074 7.01758 9.99121 7.33911 9.45557C 9.1604 11.6252 11.8391 13.0449 14.8657 13.2056C 14.8123 12.9377 14.7854 12.6699 14.7854 12.3752C 14.7854 10.3931 16.4194 8.78589 18.4282 8.78589C 19.4729 8.78589 20.4104 9.21436 21.0801 9.91089C 21.9104 9.75024 22.6873 9.42871 23.3835 9.02686C 23.1157 9.85742 22.5266 10.5537 21.7766 11.009Z" fill="white"/>
</g>
</g>
</g>
</svg>

