<svg width="30" height="30" viewBox="0 0 30 30" version="1.1" xmlns="http://www.w3.org/2000/svg" xmlns:xlink="http://www.w3.org/1999/xlink">
<g id="Canvas" fill="none">
<g id="linkedin">
<g id="Subtract">
<path fill-rule="evenodd" clip-rule="evenodd" d="M 15 30C 23.2769 30 30 23.2769 30 15C 30 6.72314 23.2769 0 15 0C 6.72314 0 0 6.72314 0 15C 0 23.2769 6.72314 30 15 30ZM 8.89258 20.624L 8.89258 14.8384L 8.89258 12.749L 11.6516 12.749L 11.6516 14.3831L 11.6516 20.624L 8.89258 20.624ZM 10.2852 8.81201C 9.53516 8.81201 8.91919 9.42798 8.91919 10.178C 8.91919 10.928 9.53516 11.5442 10.2852 11.5442C 11.0352 11.5442 11.6514 10.928 11.6514 10.178C 11.6514 9.42798 11.0352 8.81201 10.2852 8.81201ZM 17.7849 12.749C 19.7939 12.749 20.4636 13.6865 20.6511 15.1597C 20.7046 15.5081 20.7314 15.9097 20.7314 16.2581L 20.7314 20.5972L 18.3743 20.5972L 18.3743 16.7668C 18.3743 15.8562 18.2671 14.6775 17.0083 14.6775C 15.7224 14.6775 15.5349 15.6956 15.5349 16.7134L 15.5349 20.624L 13.2314 20.624L 13.2314 14.249L 13.2314 12.749L 15.428 12.749L 15.428 13.8206L 15.4546 13.8206C 15.803 13.2043 16.6064 12.749 17.7849 12.749Z" fill="white"/>
</g>
</g>
</g>
</svg>

