<svg width="100" height="100" viewBox="0 0 100 100" fill="none" xmlns="http://www.w3.org/2000/svg">
<path d="M80 20.0238L75.6063 16.6192C72.1005 13.9027 67.7912 12.4286 63.3561 12.4286H63M80 20.0238H87.9192C89.3673 20.0238 90.3354 21.5151 89.746 22.8379L87.5285 27.8141C87.2071 28.5354 86.4913 29 85.7017 29H58.0647M80 20.0238H65C63.8954 20.0238 63 19.1284 63 18.0238V12.4286M44.8933 29H30.5516C30.3145 29 30.0792 28.9578 29.8569 28.8755L6.89846 20.3709C6.30856 20.1524 5.85585 19.6691 5.67635 19.0661L0.765341 2.57068C0.38356 1.28833 1.34422 0 2.68219 0H8.91812C9.66536 0 10.3503 0.416552 10.694 1.08005L15.0505 9.48986C15.334 10.0372 15.8541 10.4232 16.46 10.5361L26.4346 12.3947C26.5554 12.4172 26.678 12.4286 26.8009 12.4286H63" transform="translate(2 33)" stroke="#FE4041" stroke-width="3" stroke-linecap="round" stroke-linejoin="round"/>
<path d="M0 10.5C-0.828427 10.5 -1.5 11.1716 -1.5 12C-1.5 12.8284 -0.828427 13.5 0 13.5V10.5ZM4 13.5C4.82843 13.5 5.5 12.8284 5.5 12C5.5 11.1716 4.82843 10.5 4 10.5V13.5ZM5.5 0C5.5 -0.828427 4.82843 -1.5 4 -1.5C3.17157 -1.5 2.5 -0.828427 2.5 0H5.5ZM2.5 24C2.5 24.8284 3.17157 25.5 4 25.5C4.82843 25.5 5.5 24.8284 5.5 24H2.5ZM0 13.5H4V10.5H0V13.5ZM2.5 0V24H5.5V0H2.5Z" transform="translate(92 44)" fill="#FE4041"/>
<ellipse cx="1.82" cy="2.42105" rx="1.82" ry="2.42105" transform="translate(57.8134 48.5263)" fill="#FE4041"/>
<ellipse cx="1.82" cy="2.42105" rx="1.82" ry="2.42105" transform="translate(51.7466 48.5263)" fill="#FE4041"/>
<ellipse cx="1.82" cy="2.42105" rx="1.82" ry="2.42105" transform="translate(45.6799 48.5263)" fill="#FE4041"/>
<ellipse cx="1.82" cy="2.42105" rx="1.82" ry="2.42105" transform="translate(39.6133 48.5263)" fill="#FE4041"/>
<path d="M0 2V21C0 22.1046 0.895431 23 2 23H7.9182C8.89931 23 9.73555 22.2883 9.89246 21.3199L12.9708 2.31987C13.1679 1.10351 12.2288 0 10.9965 0H2C0.895431 0 0 0.895431 0 2Z" transform="translate(47 57)" stroke="#FE4041" stroke-width="3"/>
<path d="M14 0H0" transform="translate(2 49)" stroke="#FE4041" stroke-width="3" stroke-linecap="round" stroke-linejoin="round"/>
</svg>
