<svg width="100" height="100" viewBox="0 0 100 100" fill="none" xmlns="http://www.w3.org/2000/svg">
<path d="M37.4728 12.6099H3.68512C3.3039 12.6099 2.96425 12.3692 2.83803 12.0094L0.302189 4.7822C0.136111 4.30887 0.395193 3.78927 0.872237 3.63419C15.7396 -1.19891 24.6632 -1.22623 40.2706 3.64127C40.7537 3.79194 41.0194 4.3156 40.8519 4.79311L38.3199 12.0094C38.1936 12.3692 37.854 12.6099 37.4728 12.6099Z" transform="translate(29.421 12)" stroke="#FE4041" stroke-width="3"/>
<ellipse cx="2.68421" cy="2.70213" rx="2.68421" ry="2.70213" transform="translate(47.3158 16.5035)" fill="#FE4041"/>
<path d="M0 0.897719V1.61911C0 2.18165 0.511448 2.60559 1.06422 2.50126L4.88615 1.77986C5.95745 1.57765 5.80986 0 4.71965 0H0.897719C0.401922 0 0 0.401922 0 0.897719Z" transform="translate(53.5789 17.4042)" fill="#FE4041"/>
<path d="M0 0.897719V1.61911C0 2.18165 0.511448 2.60559 1.06422 2.50126L4.88615 1.77986C5.95745 1.57765 5.80986 0 4.71965 0H0.897719C0.401922 0 0 0.401922 0 0.897719Z" transform="translate(46.421 17.4042) scale(-1 1)" fill="#FE4041"/>
<path d="M35.7895 0H0V3.3656C0 4.09492 0.442817 4.75396 1.12069 5.02301C13.8891 10.0909 21.5986 10.4307 34.6928 5.03164C35.3578 4.75746 35.7895 4.10477 35.7895 3.38548V0Z" transform="translate(32.1052 24.5349)" stroke="#FE4041" stroke-width="3"/>
<path d="M0 0C0.159064 8.35659 3.91298 25.0698 17.6561 25.0698C31.3993 25.0698 35.4713 8.35659 35.7895 0" transform="translate(32.1052 28.1163)" stroke="#FE4041" stroke-width="3"/>
<path d="M1.46273 10.5076L20.8159 0.567595C21.4809 0.22609 22.2869 0.33667 22.8545 0.823098C30.9981 7.80266 37.3315 7.8319 44.696 0.910835C45.262 0.378879 46.101 0.236262 46.7948 0.585498L66.5177 10.5128C67.4265 10.9702 68 11.9009 68 12.9184V31.0835C68 32.5709 66.7942 33.7766 65.3068 33.7766H2.69316C1.20577 33.7766 0 32.5709 0 31.0835V12.9033C0 11.8937 0.564659 10.9689 1.46273 10.5076Z" transform="translate(16 55.2234)" stroke="#FE4041" stroke-width="3"/>
<path d="M0 6.29841V0.897725C0 0.401925 0.401925 0 0.897725 0H14.7812C15.277 0 15.6789 0.401925 15.6789 0.897725V6.29841C15.6789 6.79421 15.277 7.19614 14.7812 7.19614H0.897725C0.401925 7.19614 0 6.79421 0 6.29841Z" transform="matrix(0.893102 0.449855 -0.445093 0.895485 64.8011 56.8867)" stroke="#FE4041" stroke-width="3"/>
<path d="M0 6.29841V0.897725C0 0.401925 0.401925 0 0.897725 0H14.7812C15.277 0 15.6789 0.401925 15.6789 0.897725V6.29841C15.6789 6.79421 15.277 7.19614 14.7812 7.19614H0.897725C0.401925 7.19614 0 6.79421 0 6.29841Z" transform="matrix(-0.893102 0.449855 0.445093 0.895485 35.3712 56.8867)" stroke="#FE4041" stroke-width="3"/>
<path d="M0 0V27.922" transform="translate(50 61.078)" stroke="#FE4041" stroke-width="3"/>
</svg>
