<svg width="100" height="100" viewBox="0 0 100 100" fill="none" xmlns="http://www.w3.org/2000/svg">
<path d="M0 15.5262V2.81993C0 1.26252 1.26252 0 2.81993 0H45.1801C46.7375 0 48 1.26252 48 2.81993V15.5262M0 15.5262V55.3539C0 56.4255 0.607402 57.4045 1.56754 57.8805L22.7476 68.3792C23.5367 68.7704 24.4633 68.7704 25.2524 68.3792L46.4325 57.8805C47.3926 57.4045 48 56.4255 48 55.3539V15.5262M0 15.5262H48" transform="translate(26 15)" stroke="#FE4041" stroke-width="3"/>
<path d="M22.4979 8.46576C22.2806 7.77122 21.7033 7.26489 21.0082 7.15962L15.4393 6.31802L12.949 1.06982C12.638 0.414808 11.9965 0 11.2941 0C10.5916 0 9.95013 0.414808 9.63928 1.06982L7.1489 6.31802L1.58008 7.15962C0.884873 7.26457 0.307404 7.77106 0.0903078 8.46591C-0.126633 9.16092 0.0543315 9.92349 0.55736 10.4335L4.58704 14.5186L3.63565 20.2869C3.51682 21.0071 3.80134 21.7346 4.36978 22.1641C4.93791 22.5936 5.69151 22.65 6.31322 22.3102L11.2941 19.5871L16.2749 22.3102C16.5449 22.4578 16.8397 22.5306 17.1333 22.5306C17.5158 22.5306 17.8968 22.407 18.2182 22.1639C18.7866 21.7344 19.0712 21.0069 18.9522 20.2867L18.0009 14.5184L22.0306 10.4334C22.5339 9.92349 22.7149 9.16076 22.4979 8.46576ZM14.7303 12.4741C14.2953 12.9149 14.0968 13.5502 14.1995 14.173L14.6826 17.103L12.1527 15.7196C11.8841 15.5726 11.5889 15.4994 11.294 15.4994C10.999 15.4994 10.704 15.5729 10.4353 15.7196L7.90532 17.103L8.3884 14.173C8.49118 13.5503 8.29263 12.9151 7.85766 12.4741L5.81113 10.3992L8.63961 9.9716C9.24059 9.88089 9.76029 9.48811 10.0291 8.92171L11.2941 6.25598L12.559 8.92171C12.828 9.48811 13.3474 9.88073 13.9485 9.9716L16.777 10.3992L14.7303 12.4741Z" transform="translate(38.7059 41.7551)" fill="#FE4041"/>
</svg>
