<svg width="31" height="34" viewBox="0 0 31 34" version="1.1" xmlns="http://www.w3.org/2000/svg" xmlns:xlink="http://www.w3.org/1999/xlink">
<g id="Canvas" fill="none">
<g id="logomark-right">
<g id="Vector">
<path d="M 1.80951 0.296551C 1.16325 -0.338108 0 0.106153 0 1.05814L 0 17.115C 0 17.3689 0.12925 17.6862 0.323126 17.8766L 13.5067 30.3159C 14.1529 30.9506 15.3162 30.5063 15.3162 29.5544L 15.3162 13.8783C 15.3162 13.6244 15.1869 13.3071 14.993 13.1167L 1.80951 0.296551Z" transform="matrix(0 1 -1 0 30.7969 17.7314)" fill="white"/>
</g>
<g id="Vector_2">
<path d="M 13.3128 0.322642L 0.323128 13.0793C 0.129252 13.2697 1.9722e-06 13.587 1.9722e-06 13.8409L 1.9722e-06 29.3901C 1.9722e-06 30.342 1.16325 30.8498 1.87413 30.1516L 14.9284 17.7758C 15.1223 17.5854 15.2515 17.2681 15.2515 17.0142L 15.2515 1.1477C 15.2515 0.132244 14.0237 -0.375483 13.3128 0.322642Z" transform="matrix(0 1 -1 0 30.7617 0.476562)" fill="white"/>
</g>
</g>
</g>
</svg>

